<svg height="24" viewBox="0 0 8 12" width="24" xmlns="http://www.w3.org/2000/svg">
  <path d="M4 0L0 4V8L4 12L8 8V4L4 0ZM7 7.59L4 10.59L1 7.59V4.41L4 1.41L7 4.41V7.59Z" fill="hsl(302,calc(100%),72.5%)"/>
  <path d="M2 4.83V7.17L4 9.17L6 7.17V4.83L4 2.83L2 4.83Z" fill="hsl(302,calc(100%),72.5%)"/>
  <g fill="#d4e4ff"><path d="m6.04009 14.31h-.01c-.24301 0-.44.197-.44.44v.89c0 .243.19699.44.44.44h.01c.243 0 .44-.197.44-.44v-.89c0-.243-.197-.44-.44-.44z"/>
    <path d="m6.04009 17.85h-.01c-.24301 0-.44.197-.44.44v.89c0 .243.19699.44.44.44h.01c.243 0 .44-.197.44-.44v-.89c0-.243-.197-.44-.44-.44z"/>
    <path d="m8.69995 16.98v-.01c0-.243-.19699-.44-.44-.44h-.89c-.243 0-.44.197-.44.44v.01c0 .243.197.44.44.44h.89c.24301 0 .44-.197.44-.44z"/>
    <path d="m5.1499 16.98v-.01c0-.243-.19699-.44-.44-.44h-.89c-.243 0-.44.197-.44.44v.01c0 .243.197.44.44.44h.89c.24301 0 .44-.197.44-.44z"/>
  </g>
</svg>
